<mxfile host="Electron" agent="Mozilla/5.0 (X11; Linux x86_64) AppleWebKit/537.36 (KHTML, like Gecko) draw.io/24.7.17 Chrome/128.0.6613.186 Electron/32.2.5 Safari/537.36" version="24.7.17">
  <diagram id="C5RBs43oDa-KdzZeNtuy" name="Page-1">
    <mxGraphModel dx="969" dy="1452" grid="1" gridSize="10" guides="1" tooltips="1" connect="1" arrows="1" fold="1" page="1" pageScale="1" pageWidth="827" pageHeight="1169" math="0" shadow="0">
      <root>
        <mxCell id="WIyWlLk6GJQsqaUBKTNV-0" />
        <mxCell id="WIyWlLk6GJQsqaUBKTNV-1" parent="WIyWlLk6GJQsqaUBKTNV-0" />
        <mxCell id="bUyvUs3Fg9rZF2IHYynH-4" style="edgeStyle=orthogonalEdgeStyle;rounded=0;orthogonalLoop=1;jettySize=auto;html=1;exitX=0.5;exitY=1;exitDx=0;exitDy=0;entryX=0.5;entryY=0;entryDx=0;entryDy=0;" edge="1" parent="WIyWlLk6GJQsqaUBKTNV-1" source="bUyvUs3Fg9rZF2IHYynH-1">
          <mxGeometry relative="1" as="geometry">
            <mxPoint x="250" y="50" as="targetPoint" />
          </mxGeometry>
        </mxCell>
        <mxCell id="bUyvUs3Fg9rZF2IHYynH-1" value="Начало" style="rounded=1;whiteSpace=wrap;html=1;arcSize=50;" vertex="1" parent="WIyWlLk6GJQsqaUBKTNV-1">
          <mxGeometry x="190" y="-10" width="120" height="30" as="geometry" />
        </mxCell>
        <mxCell id="bUyvUs3Fg9rZF2IHYynH-7" value="" style="edgeStyle=orthogonalEdgeStyle;rounded=0;orthogonalLoop=1;jettySize=auto;html=1;" edge="1" parent="WIyWlLk6GJQsqaUBKTNV-1">
          <mxGeometry relative="1" as="geometry">
            <mxPoint x="250" y="110" as="sourcePoint" />
            <mxPoint x="250" y="130" as="targetPoint" />
          </mxGeometry>
        </mxCell>
        <mxCell id="bUyvUs3Fg9rZF2IHYynH-12" style="edgeStyle=orthogonalEdgeStyle;rounded=0;orthogonalLoop=1;jettySize=auto;html=1;exitX=0.5;exitY=1;exitDx=0;exitDy=0;entryX=0.5;entryY=0;entryDx=0;entryDy=0;" edge="1" parent="WIyWlLk6GJQsqaUBKTNV-1" source="bUyvUs3Fg9rZF2IHYynH-8" target="bUyvUs3Fg9rZF2IHYynH-11">
          <mxGeometry relative="1" as="geometry" />
        </mxCell>
        <mxCell id="bUyvUs3Fg9rZF2IHYynH-8" value="Вывод&lt;div&gt;CountLetters(buf, l)&lt;/div&gt;" style="shape=parallelogram;perimeter=parallelogramPerimeter;whiteSpace=wrap;html=1;fixedSize=1;" vertex="1" parent="WIyWlLk6GJQsqaUBKTNV-1">
          <mxGeometry x="190" y="210" width="120" height="60" as="geometry" />
        </mxCell>
        <mxCell id="bUyvUs3Fg9rZF2IHYynH-10" style="edgeStyle=orthogonalEdgeStyle;rounded=0;orthogonalLoop=1;jettySize=auto;html=1;exitX=0.5;exitY=1;exitDx=0;exitDy=0;entryX=0.5;entryY=0;entryDx=0;entryDy=0;" edge="1" parent="WIyWlLk6GJQsqaUBKTNV-1" source="bUyvUs3Fg9rZF2IHYynH-9" target="bUyvUs3Fg9rZF2IHYynH-8">
          <mxGeometry relative="1" as="geometry" />
        </mxCell>
        <mxCell id="bUyvUs3Fg9rZF2IHYynH-9" value="l = strlen(buf)" style="shape=process;whiteSpace=wrap;html=1;backgroundOutline=1;" vertex="1" parent="WIyWlLk6GJQsqaUBKTNV-1">
          <mxGeometry x="190" y="130" width="120" height="60" as="geometry" />
        </mxCell>
        <mxCell id="bUyvUs3Fg9rZF2IHYynH-11" value="Конец" style="rounded=1;whiteSpace=wrap;html=1;arcSize=50;" vertex="1" parent="WIyWlLk6GJQsqaUBKTNV-1">
          <mxGeometry x="190" y="290" width="120" height="30" as="geometry" />
        </mxCell>
        <mxCell id="bUyvUs3Fg9rZF2IHYynH-13" value="Ввод строки buf" style="shape=parallelogram;perimeter=parallelogramPerimeter;whiteSpace=wrap;html=1;fixedSize=1;" vertex="1" parent="WIyWlLk6GJQsqaUBKTNV-1">
          <mxGeometry x="190" y="50" width="120" height="60" as="geometry" />
        </mxCell>
        <mxCell id="bUyvUs3Fg9rZF2IHYynH-17" value="" style="edgeStyle=orthogonalEdgeStyle;rounded=0;orthogonalLoop=1;jettySize=auto;html=1;" edge="1" parent="WIyWlLk6GJQsqaUBKTNV-1" source="bUyvUs3Fg9rZF2IHYynH-14" target="bUyvUs3Fg9rZF2IHYynH-15">
          <mxGeometry relative="1" as="geometry" />
        </mxCell>
        <mxCell id="bUyvUs3Fg9rZF2IHYynH-14" value="CountLetters" style="rounded=1;whiteSpace=wrap;html=1;arcSize=50;" vertex="1" parent="WIyWlLk6GJQsqaUBKTNV-1">
          <mxGeometry x="460" y="-10" width="120" height="30" as="geometry" />
        </mxCell>
        <mxCell id="bUyvUs3Fg9rZF2IHYynH-19" value="" style="edgeStyle=orthogonalEdgeStyle;rounded=0;orthogonalLoop=1;jettySize=auto;html=1;" edge="1" parent="WIyWlLk6GJQsqaUBKTNV-1" source="bUyvUs3Fg9rZF2IHYynH-15" target="bUyvUs3Fg9rZF2IHYynH-18">
          <mxGeometry relative="1" as="geometry" />
        </mxCell>
        <mxCell id="bUyvUs3Fg9rZF2IHYynH-15" value="Ввод str" style="shape=parallelogram;perimeter=parallelogramPerimeter;whiteSpace=wrap;html=1;fixedSize=1;" vertex="1" parent="WIyWlLk6GJQsqaUBKTNV-1">
          <mxGeometry x="460" y="50" width="120" height="60" as="geometry" />
        </mxCell>
        <mxCell id="bUyvUs3Fg9rZF2IHYynH-22" value="" style="edgeStyle=orthogonalEdgeStyle;rounded=0;orthogonalLoop=1;jettySize=auto;html=1;" edge="1" parent="WIyWlLk6GJQsqaUBKTNV-1" source="bUyvUs3Fg9rZF2IHYynH-18" target="bUyvUs3Fg9rZF2IHYynH-21">
          <mxGeometry relative="1" as="geometry" />
        </mxCell>
        <mxCell id="bUyvUs3Fg9rZF2IHYynH-18" value="Ввод len" style="shape=parallelogram;perimeter=parallelogramPerimeter;whiteSpace=wrap;html=1;fixedSize=1;" vertex="1" parent="WIyWlLk6GJQsqaUBKTNV-1">
          <mxGeometry x="460" y="140" width="120" height="60" as="geometry" />
        </mxCell>
        <mxCell id="bUyvUs3Fg9rZF2IHYynH-24" value="" style="edgeStyle=orthogonalEdgeStyle;rounded=0;orthogonalLoop=1;jettySize=auto;html=1;" edge="1" parent="WIyWlLk6GJQsqaUBKTNV-1" source="bUyvUs3Fg9rZF2IHYynH-21" target="bUyvUs3Fg9rZF2IHYynH-23">
          <mxGeometry relative="1" as="geometry" />
        </mxCell>
        <mxCell id="bUyvUs3Fg9rZF2IHYynH-21" value="cons = 0" style="whiteSpace=wrap;html=1;" vertex="1" parent="WIyWlLk6GJQsqaUBKTNV-1">
          <mxGeometry x="460" y="230" width="120" height="60" as="geometry" />
        </mxCell>
        <mxCell id="bUyvUs3Fg9rZF2IHYynH-26" value="" style="edgeStyle=orthogonalEdgeStyle;rounded=0;orthogonalLoop=1;jettySize=auto;html=1;" edge="1" parent="WIyWlLk6GJQsqaUBKTNV-1" source="bUyvUs3Fg9rZF2IHYynH-23" target="bUyvUs3Fg9rZF2IHYynH-25">
          <mxGeometry relative="1" as="geometry" />
        </mxCell>
        <mxCell id="bUyvUs3Fg9rZF2IHYynH-23" value="vow = 0" style="whiteSpace=wrap;html=1;" vertex="1" parent="WIyWlLk6GJQsqaUBKTNV-1">
          <mxGeometry x="460" y="320" width="120" height="60" as="geometry" />
        </mxCell>
        <mxCell id="bUyvUs3Fg9rZF2IHYynH-29" value="" style="edgeStyle=orthogonalEdgeStyle;rounded=0;orthogonalLoop=1;jettySize=auto;html=1;" edge="1" parent="WIyWlLk6GJQsqaUBKTNV-1" source="bUyvUs3Fg9rZF2IHYynH-25" target="bUyvUs3Fg9rZF2IHYynH-28">
          <mxGeometry relative="1" as="geometry" />
        </mxCell>
        <mxCell id="bUyvUs3Fg9rZF2IHYynH-25" value="i = 0;&lt;div&gt;i &amp;lt; len&lt;/div&gt;" style="strokeWidth=2;html=1;shape=mxgraph.flowchart.loop_limit;whiteSpace=wrap;" vertex="1" parent="WIyWlLk6GJQsqaUBKTNV-1">
          <mxGeometry x="460" y="410" width="120" height="60" as="geometry" />
        </mxCell>
        <mxCell id="bUyvUs3Fg9rZF2IHYynH-28" value="cp = GetCodepoint&lt;div&gt;(str, i)&lt;/div&gt;" style="shape=process;whiteSpace=wrap;html=1;backgroundOutline=1;strokeWidth=2;" vertex="1" parent="WIyWlLk6GJQsqaUBKTNV-1">
          <mxGeometry x="460" y="500" width="120" height="60" as="geometry" />
        </mxCell>
        <mxCell id="bUyvUs3Fg9rZF2IHYynH-31" style="edgeStyle=orthogonalEdgeStyle;rounded=0;orthogonalLoop=1;jettySize=auto;html=1;" edge="1" parent="WIyWlLk6GJQsqaUBKTNV-1" source="bUyvUs3Fg9rZF2IHYynH-30">
          <mxGeometry relative="1" as="geometry">
            <mxPoint x="370" y="680" as="targetPoint" />
          </mxGeometry>
        </mxCell>
        <mxCell id="bUyvUs3Fg9rZF2IHYynH-34" style="edgeStyle=orthogonalEdgeStyle;rounded=0;orthogonalLoop=1;jettySize=auto;html=1;exitX=1;exitY=0.5;exitDx=0;exitDy=0;exitPerimeter=0;entryX=0.5;entryY=0;entryDx=0;entryDy=0;" edge="1" parent="WIyWlLk6GJQsqaUBKTNV-1" source="bUyvUs3Fg9rZF2IHYynH-30" target="bUyvUs3Fg9rZF2IHYynH-33">
          <mxGeometry relative="1" as="geometry" />
        </mxCell>
        <mxCell id="bUyvUs3Fg9rZF2IHYynH-30" value="cp" style="strokeWidth=2;html=1;shape=mxgraph.flowchart.decision;whiteSpace=wrap;" vertex="1" parent="WIyWlLk6GJQsqaUBKTNV-1">
          <mxGeometry x="460" y="580" width="120" height="60" as="geometry" />
        </mxCell>
        <mxCell id="bUyvUs3Fg9rZF2IHYynH-32" value="++vow" style="rounded=0;whiteSpace=wrap;html=1;" vertex="1" parent="WIyWlLk6GJQsqaUBKTNV-1">
          <mxGeometry x="310" y="680" width="120" height="60" as="geometry" />
        </mxCell>
        <mxCell id="bUyvUs3Fg9rZF2IHYynH-33" value="++cons" style="rounded=0;whiteSpace=wrap;html=1;" vertex="1" parent="WIyWlLk6GJQsqaUBKTNV-1">
          <mxGeometry x="600" y="680" width="120" height="60" as="geometry" />
        </mxCell>
        <mxCell id="bUyvUs3Fg9rZF2IHYynH-35" value="гласная" style="text;html=1;align=center;verticalAlign=middle;whiteSpace=wrap;rounded=0;" vertex="1" parent="WIyWlLk6GJQsqaUBKTNV-1">
          <mxGeometry x="384" y="580" width="60" height="30" as="geometry" />
        </mxCell>
        <mxCell id="bUyvUs3Fg9rZF2IHYynH-36" value="согласная" style="text;html=1;align=center;verticalAlign=middle;whiteSpace=wrap;rounded=0;" vertex="1" parent="WIyWlLk6GJQsqaUBKTNV-1">
          <mxGeometry x="590" y="580" width="60" height="30" as="geometry" />
        </mxCell>
        <mxCell id="bUyvUs3Fg9rZF2IHYynH-47" value="" style="edgeStyle=orthogonalEdgeStyle;rounded=0;orthogonalLoop=1;jettySize=auto;html=1;" edge="1" parent="WIyWlLk6GJQsqaUBKTNV-1" source="bUyvUs3Fg9rZF2IHYynH-37" target="bUyvUs3Fg9rZF2IHYynH-46">
          <mxGeometry relative="1" as="geometry" />
        </mxCell>
        <mxCell id="bUyvUs3Fg9rZF2IHYynH-37" value="" style="strokeWidth=2;html=1;shape=mxgraph.flowchart.loop_limit;whiteSpace=wrap;direction=west;" vertex="1" parent="WIyWlLk6GJQsqaUBKTNV-1">
          <mxGeometry x="460" y="820" width="120" height="60" as="geometry" />
        </mxCell>
        <mxCell id="bUyvUs3Fg9rZF2IHYynH-38" style="edgeStyle=orthogonalEdgeStyle;rounded=0;orthogonalLoop=1;jettySize=auto;html=1;exitX=0.5;exitY=1;exitDx=0;exitDy=0;exitPerimeter=0;entryX=0.5;entryY=1;entryDx=0;entryDy=0;entryPerimeter=0;" edge="1" parent="WIyWlLk6GJQsqaUBKTNV-1" source="bUyvUs3Fg9rZF2IHYynH-30" target="bUyvUs3Fg9rZF2IHYynH-37">
          <mxGeometry relative="1" as="geometry" />
        </mxCell>
        <mxCell id="bUyvUs3Fg9rZF2IHYynH-41" value="" style="endArrow=none;html=1;rounded=0;" edge="1" parent="WIyWlLk6GJQsqaUBKTNV-1">
          <mxGeometry width="50" height="50" relative="1" as="geometry">
            <mxPoint x="369.5" y="790" as="sourcePoint" />
            <mxPoint x="369.5" y="740" as="targetPoint" />
          </mxGeometry>
        </mxCell>
        <mxCell id="bUyvUs3Fg9rZF2IHYynH-42" value="" style="endArrow=classic;html=1;rounded=0;" edge="1" parent="WIyWlLk6GJQsqaUBKTNV-1">
          <mxGeometry width="50" height="50" relative="1" as="geometry">
            <mxPoint x="370" y="790" as="sourcePoint" />
            <mxPoint x="520" y="790" as="targetPoint" />
          </mxGeometry>
        </mxCell>
        <mxCell id="bUyvUs3Fg9rZF2IHYynH-43" value="" style="endArrow=classic;html=1;rounded=0;" edge="1" parent="WIyWlLk6GJQsqaUBKTNV-1">
          <mxGeometry width="50" height="50" relative="1" as="geometry">
            <mxPoint x="660" y="780" as="sourcePoint" />
            <mxPoint x="520" y="780" as="targetPoint" />
          </mxGeometry>
        </mxCell>
        <mxCell id="bUyvUs3Fg9rZF2IHYynH-44" value="" style="endArrow=none;html=1;rounded=0;" edge="1" parent="WIyWlLk6GJQsqaUBKTNV-1">
          <mxGeometry width="50" height="50" relative="1" as="geometry">
            <mxPoint x="660" y="780" as="sourcePoint" />
            <mxPoint x="660" y="740" as="targetPoint" />
          </mxGeometry>
        </mxCell>
        <mxCell id="bUyvUs3Fg9rZF2IHYynH-45" style="edgeStyle=orthogonalEdgeStyle;rounded=0;orthogonalLoop=1;jettySize=auto;html=1;exitX=0.5;exitY=1;exitDx=0;exitDy=0;entryX=0.5;entryY=0;entryDx=0;entryDy=0;entryPerimeter=0;" edge="1" parent="WIyWlLk6GJQsqaUBKTNV-1" source="bUyvUs3Fg9rZF2IHYynH-28" target="bUyvUs3Fg9rZF2IHYynH-30">
          <mxGeometry relative="1" as="geometry" />
        </mxCell>
        <mxCell id="bUyvUs3Fg9rZF2IHYynH-49" value="" style="edgeStyle=orthogonalEdgeStyle;rounded=0;orthogonalLoop=1;jettySize=auto;html=1;" edge="1" parent="WIyWlLk6GJQsqaUBKTNV-1" source="bUyvUs3Fg9rZF2IHYynH-46" target="bUyvUs3Fg9rZF2IHYynH-48">
          <mxGeometry relative="1" as="geometry" />
        </mxCell>
        <mxCell id="bUyvUs3Fg9rZF2IHYynH-46" value="vow" style="shape=parallelogram;perimeter=parallelogramPerimeter;whiteSpace=wrap;html=1;fixedSize=1;strokeWidth=2;" vertex="1" parent="WIyWlLk6GJQsqaUBKTNV-1">
          <mxGeometry x="460" y="920" width="120" height="60" as="geometry" />
        </mxCell>
        <mxCell id="bUyvUs3Fg9rZF2IHYynH-51" value="" style="edgeStyle=orthogonalEdgeStyle;rounded=0;orthogonalLoop=1;jettySize=auto;html=1;" edge="1" parent="WIyWlLk6GJQsqaUBKTNV-1" source="bUyvUs3Fg9rZF2IHYynH-48" target="bUyvUs3Fg9rZF2IHYynH-50">
          <mxGeometry relative="1" as="geometry" />
        </mxCell>
        <mxCell id="bUyvUs3Fg9rZF2IHYynH-48" value="cons" style="shape=parallelogram;perimeter=parallelogramPerimeter;whiteSpace=wrap;html=1;fixedSize=1;strokeWidth=2;" vertex="1" parent="WIyWlLk6GJQsqaUBKTNV-1">
          <mxGeometry x="460" y="1020" width="120" height="60" as="geometry" />
        </mxCell>
        <mxCell id="bUyvUs3Fg9rZF2IHYynH-50" value="Конец" style="rounded=1;whiteSpace=wrap;html=1;arcSize=50;" vertex="1" parent="WIyWlLk6GJQsqaUBKTNV-1">
          <mxGeometry x="460" y="1120" width="120" height="30" as="geometry" />
        </mxCell>
        <mxCell id="bUyvUs3Fg9rZF2IHYynH-54" value="" style="edgeStyle=orthogonalEdgeStyle;rounded=0;orthogonalLoop=1;jettySize=auto;html=1;" edge="1" parent="WIyWlLk6GJQsqaUBKTNV-1" source="bUyvUs3Fg9rZF2IHYynH-52" target="bUyvUs3Fg9rZF2IHYynH-53">
          <mxGeometry relative="1" as="geometry" />
        </mxCell>
        <mxCell id="bUyvUs3Fg9rZF2IHYynH-52" value="GetCodepoint" style="rounded=1;whiteSpace=wrap;html=1;arcSize=50;" vertex="1" parent="WIyWlLk6GJQsqaUBKTNV-1">
          <mxGeometry x="880" y="-10" width="120" height="30" as="geometry" />
        </mxCell>
        <mxCell id="bUyvUs3Fg9rZF2IHYynH-56" value="" style="edgeStyle=orthogonalEdgeStyle;rounded=0;orthogonalLoop=1;jettySize=auto;html=1;" edge="1" parent="WIyWlLk6GJQsqaUBKTNV-1" source="bUyvUs3Fg9rZF2IHYynH-53" target="bUyvUs3Fg9rZF2IHYynH-55">
          <mxGeometry relative="1" as="geometry" />
        </mxCell>
        <mxCell id="bUyvUs3Fg9rZF2IHYynH-53" value="&amp;nbsp;Ввод chr" style="shape=parallelogram;perimeter=parallelogramPerimeter;whiteSpace=wrap;html=1;fixedSize=1;" vertex="1" parent="WIyWlLk6GJQsqaUBKTNV-1">
          <mxGeometry x="880" y="50" width="120" height="60" as="geometry" />
        </mxCell>
        <mxCell id="bUyvUs3Fg9rZF2IHYynH-60" value="" style="edgeStyle=orthogonalEdgeStyle;rounded=0;orthogonalLoop=1;jettySize=auto;html=1;" edge="1" parent="WIyWlLk6GJQsqaUBKTNV-1" source="bUyvUs3Fg9rZF2IHYynH-55" target="bUyvUs3Fg9rZF2IHYynH-59">
          <mxGeometry relative="1" as="geometry" />
        </mxCell>
        <mxCell id="bUyvUs3Fg9rZF2IHYynH-55" value="Ввод &amp;amp;i" style="shape=parallelogram;perimeter=parallelogramPerimeter;whiteSpace=wrap;html=1;fixedSize=1;" vertex="1" parent="WIyWlLk6GJQsqaUBKTNV-1">
          <mxGeometry x="880" y="140" width="120" height="60" as="geometry" />
        </mxCell>
        <mxCell id="bUyvUs3Fg9rZF2IHYynH-62" value="" style="edgeStyle=orthogonalEdgeStyle;rounded=0;orthogonalLoop=1;jettySize=auto;html=1;" edge="1" parent="WIyWlLk6GJQsqaUBKTNV-1" source="bUyvUs3Fg9rZF2IHYynH-59" target="bUyvUs3Fg9rZF2IHYynH-61">
          <mxGeometry relative="1" as="geometry" />
        </mxCell>
        <mxCell id="bUyvUs3Fg9rZF2IHYynH-59" value="code = 0" style="whiteSpace=wrap;html=1;" vertex="1" parent="WIyWlLk6GJQsqaUBKTNV-1">
          <mxGeometry x="880" y="230" width="120" height="60" as="geometry" />
        </mxCell>
        <mxCell id="bUyvUs3Fg9rZF2IHYynH-64" value="" style="edgeStyle=orthogonalEdgeStyle;rounded=0;orthogonalLoop=1;jettySize=auto;html=1;" edge="1" parent="WIyWlLk6GJQsqaUBKTNV-1" source="bUyvUs3Fg9rZF2IHYynH-61" target="bUyvUs3Fg9rZF2IHYynH-63">
          <mxGeometry relative="1" as="geometry" />
        </mxCell>
        <mxCell id="bUyvUs3Fg9rZF2IHYynH-61" value="octets = 0" style="whiteSpace=wrap;html=1;" vertex="1" parent="WIyWlLk6GJQsqaUBKTNV-1">
          <mxGeometry x="880" y="320" width="120" height="60" as="geometry" />
        </mxCell>
        <mxCell id="bUyvUs3Fg9rZF2IHYynH-66" value="" style="edgeStyle=orthogonalEdgeStyle;rounded=0;orthogonalLoop=1;jettySize=auto;html=1;" edge="1" parent="WIyWlLk6GJQsqaUBKTNV-1" source="bUyvUs3Fg9rZF2IHYynH-63" target="bUyvUs3Fg9rZF2IHYynH-65">
          <mxGeometry relative="1" as="geometry" />
        </mxCell>
        <mxCell id="bUyvUs3Fg9rZF2IHYynH-78" style="edgeStyle=orthogonalEdgeStyle;rounded=0;orthogonalLoop=1;jettySize=auto;html=1;exitX=1;exitY=0.5;exitDx=0;exitDy=0;entryX=0.5;entryY=0;entryDx=0;entryDy=0;" edge="1" parent="WIyWlLk6GJQsqaUBKTNV-1" source="bUyvUs3Fg9rZF2IHYynH-63" target="bUyvUs3Fg9rZF2IHYynH-68">
          <mxGeometry relative="1" as="geometry" />
        </mxCell>
        <mxCell id="bUyvUs3Fg9rZF2IHYynH-63" value="0x80 &amp;amp; chr[i]&lt;div&gt;== 0x00&lt;/div&gt;" style="rhombus;whiteSpace=wrap;html=1;" vertex="1" parent="WIyWlLk6GJQsqaUBKTNV-1">
          <mxGeometry x="880" y="410" width="120" height="60" as="geometry" />
        </mxCell>
        <mxCell id="bUyvUs3Fg9rZF2IHYynH-83" style="edgeStyle=orthogonalEdgeStyle;rounded=0;orthogonalLoop=1;jettySize=auto;html=1;exitX=0.5;exitY=1;exitDx=0;exitDy=0;" edge="1" parent="WIyWlLk6GJQsqaUBKTNV-1" source="bUyvUs3Fg9rZF2IHYynH-65">
          <mxGeometry relative="1" as="geometry">
            <mxPoint x="940" y="930" as="targetPoint" />
          </mxGeometry>
        </mxCell>
        <mxCell id="bUyvUs3Fg9rZF2IHYynH-65" value="code = chr[i]" style="whiteSpace=wrap;html=1;" vertex="1" parent="WIyWlLk6GJQsqaUBKTNV-1">
          <mxGeometry x="880" y="500" width="120" height="60" as="geometry" />
        </mxCell>
        <mxCell id="bUyvUs3Fg9rZF2IHYynH-67" value="" style="edgeStyle=orthogonalEdgeStyle;rounded=0;orthogonalLoop=1;jettySize=auto;html=1;" edge="1" source="bUyvUs3Fg9rZF2IHYynH-68" target="bUyvUs3Fg9rZF2IHYynH-69" parent="WIyWlLk6GJQsqaUBKTNV-1">
          <mxGeometry relative="1" as="geometry" />
        </mxCell>
        <mxCell id="bUyvUs3Fg9rZF2IHYynH-79" style="edgeStyle=orthogonalEdgeStyle;rounded=0;orthogonalLoop=1;jettySize=auto;html=1;exitX=1;exitY=0.5;exitDx=0;exitDy=0;entryX=0.5;entryY=0;entryDx=0;entryDy=0;" edge="1" parent="WIyWlLk6GJQsqaUBKTNV-1" source="bUyvUs3Fg9rZF2IHYynH-68" target="bUyvUs3Fg9rZF2IHYynH-71">
          <mxGeometry relative="1" as="geometry" />
        </mxCell>
        <mxCell id="bUyvUs3Fg9rZF2IHYynH-68" value="0x80 &amp;amp; chr[i]&lt;div&gt;== 0x00&lt;/div&gt;" style="rhombus;whiteSpace=wrap;html=1;" vertex="1" parent="WIyWlLk6GJQsqaUBKTNV-1">
          <mxGeometry x="1050" y="500" width="120" height="60" as="geometry" />
        </mxCell>
        <mxCell id="bUyvUs3Fg9rZF2IHYynH-75" value="" style="edgeStyle=orthogonalEdgeStyle;rounded=0;orthogonalLoop=1;jettySize=auto;html=1;" edge="1" parent="WIyWlLk6GJQsqaUBKTNV-1" source="bUyvUs3Fg9rZF2IHYynH-69" target="bUyvUs3Fg9rZF2IHYynH-74">
          <mxGeometry relative="1" as="geometry" />
        </mxCell>
        <mxCell id="bUyvUs3Fg9rZF2IHYynH-69" value="code = 0x07 &amp;amp; chr[i]" style="whiteSpace=wrap;html=1;" vertex="1" parent="WIyWlLk6GJQsqaUBKTNV-1">
          <mxGeometry x="1050" y="590" width="120" height="60" as="geometry" />
        </mxCell>
        <mxCell id="bUyvUs3Fg9rZF2IHYynH-70" value="" style="edgeStyle=orthogonalEdgeStyle;rounded=0;orthogonalLoop=1;jettySize=auto;html=1;" edge="1" source="bUyvUs3Fg9rZF2IHYynH-71" target="bUyvUs3Fg9rZF2IHYynH-72" parent="WIyWlLk6GJQsqaUBKTNV-1">
          <mxGeometry relative="1" as="geometry" />
        </mxCell>
        <mxCell id="bUyvUs3Fg9rZF2IHYynH-80" style="edgeStyle=orthogonalEdgeStyle;rounded=0;orthogonalLoop=1;jettySize=auto;html=1;exitX=1;exitY=0.5;exitDx=0;exitDy=0;entryX=0.5;entryY=0;entryDx=0;entryDy=0;" edge="1" parent="WIyWlLk6GJQsqaUBKTNV-1" source="bUyvUs3Fg9rZF2IHYynH-71" target="bUyvUs3Fg9rZF2IHYynH-73">
          <mxGeometry relative="1" as="geometry" />
        </mxCell>
        <mxCell id="bUyvUs3Fg9rZF2IHYynH-71" value="0x80 &amp;amp; chr[i]&lt;div&gt;== 0x00&lt;/div&gt;" style="rhombus;whiteSpace=wrap;html=1;" vertex="1" parent="WIyWlLk6GJQsqaUBKTNV-1">
          <mxGeometry x="1241" y="590" width="120" height="60" as="geometry" />
        </mxCell>
        <mxCell id="bUyvUs3Fg9rZF2IHYynH-81" value="" style="edgeStyle=orthogonalEdgeStyle;rounded=0;orthogonalLoop=1;jettySize=auto;html=1;" edge="1" parent="WIyWlLk6GJQsqaUBKTNV-1" source="bUyvUs3Fg9rZF2IHYynH-72" target="bUyvUs3Fg9rZF2IHYynH-76">
          <mxGeometry relative="1" as="geometry" />
        </mxCell>
        <mxCell id="bUyvUs3Fg9rZF2IHYynH-72" value="code = 0x0F &amp;amp; chr[i]" style="whiteSpace=wrap;html=1;" vertex="1" parent="WIyWlLk6GJQsqaUBKTNV-1">
          <mxGeometry x="1241" y="680" width="120" height="60" as="geometry" />
        </mxCell>
        <mxCell id="bUyvUs3Fg9rZF2IHYynH-82" value="" style="edgeStyle=orthogonalEdgeStyle;rounded=0;orthogonalLoop=1;jettySize=auto;html=1;" edge="1" parent="WIyWlLk6GJQsqaUBKTNV-1" source="bUyvUs3Fg9rZF2IHYynH-73" target="bUyvUs3Fg9rZF2IHYynH-77">
          <mxGeometry relative="1" as="geometry" />
        </mxCell>
        <mxCell id="bUyvUs3Fg9rZF2IHYynH-73" value="code = 0x1F &amp;amp; chr[i]" style="whiteSpace=wrap;html=1;" vertex="1" parent="WIyWlLk6GJQsqaUBKTNV-1">
          <mxGeometry x="1401" y="680" width="120" height="60" as="geometry" />
        </mxCell>
        <mxCell id="bUyvUs3Fg9rZF2IHYynH-74" value="octets = 3" style="whiteSpace=wrap;html=1;" vertex="1" parent="WIyWlLk6GJQsqaUBKTNV-1">
          <mxGeometry x="1050" y="680" width="120" height="60" as="geometry" />
        </mxCell>
        <mxCell id="bUyvUs3Fg9rZF2IHYynH-76" value="octets = 2" style="whiteSpace=wrap;html=1;" vertex="1" parent="WIyWlLk6GJQsqaUBKTNV-1">
          <mxGeometry x="1241" y="770" width="120" height="60" as="geometry" />
        </mxCell>
        <mxCell id="bUyvUs3Fg9rZF2IHYynH-77" value="octets = 1" style="whiteSpace=wrap;html=1;" vertex="1" parent="WIyWlLk6GJQsqaUBKTNV-1">
          <mxGeometry x="1401" y="770" width="120" height="60" as="geometry" />
        </mxCell>
        <mxCell id="bUyvUs3Fg9rZF2IHYynH-86" value="" style="endArrow=none;html=1;rounded=0;" edge="1" parent="WIyWlLk6GJQsqaUBKTNV-1">
          <mxGeometry width="50" height="50" relative="1" as="geometry">
            <mxPoint x="1309.5" y="880" as="sourcePoint" />
            <mxPoint x="1309.5" y="830" as="targetPoint" />
          </mxGeometry>
        </mxCell>
        <mxCell id="bUyvUs3Fg9rZF2IHYynH-88" value="" style="endArrow=none;html=1;rounded=0;" edge="1" parent="WIyWlLk6GJQsqaUBKTNV-1">
          <mxGeometry width="50" height="50" relative="1" as="geometry">
            <mxPoint x="1469.5" y="880" as="sourcePoint" />
            <mxPoint x="1469.5" y="830" as="targetPoint" />
          </mxGeometry>
        </mxCell>
        <mxCell id="bUyvUs3Fg9rZF2IHYynH-89" value="" style="endArrow=classic;html=1;rounded=0;" edge="1" parent="WIyWlLk6GJQsqaUBKTNV-1">
          <mxGeometry width="50" height="50" relative="1" as="geometry">
            <mxPoint x="1470" y="880" as="sourcePoint" />
            <mxPoint x="940" y="880" as="targetPoint" />
          </mxGeometry>
        </mxCell>
        <mxCell id="bUyvUs3Fg9rZF2IHYynH-90" value="" style="endArrow=none;html=1;rounded=0;" edge="1" parent="WIyWlLk6GJQsqaUBKTNV-1">
          <mxGeometry width="50" height="50" relative="1" as="geometry">
            <mxPoint x="1109.5" y="790" as="sourcePoint" />
            <mxPoint x="1109.5" y="740" as="targetPoint" />
          </mxGeometry>
        </mxCell>
        <mxCell id="bUyvUs3Fg9rZF2IHYynH-91" value="" style="endArrow=classic;html=1;rounded=0;" edge="1" parent="WIyWlLk6GJQsqaUBKTNV-1">
          <mxGeometry width="50" height="50" relative="1" as="geometry">
            <mxPoint x="1110" y="790" as="sourcePoint" />
            <mxPoint x="940" y="790" as="targetPoint" />
          </mxGeometry>
        </mxCell>
        <mxCell id="bUyvUs3Fg9rZF2IHYynH-94" value="" style="edgeStyle=orthogonalEdgeStyle;rounded=0;orthogonalLoop=1;jettySize=auto;html=1;" edge="1" parent="WIyWlLk6GJQsqaUBKTNV-1" source="bUyvUs3Fg9rZF2IHYynH-92" target="bUyvUs3Fg9rZF2IHYynH-93">
          <mxGeometry relative="1" as="geometry" />
        </mxCell>
        <mxCell id="bUyvUs3Fg9rZF2IHYynH-92" value="j = 1;&lt;div&gt;j &amp;lt;= octets;&lt;/div&gt;&lt;div&gt;++j&lt;/div&gt;" style="strokeWidth=2;html=1;shape=mxgraph.flowchart.loop_limit;whiteSpace=wrap;" vertex="1" parent="WIyWlLk6GJQsqaUBKTNV-1">
          <mxGeometry x="880" y="930" width="120" height="60" as="geometry" />
        </mxCell>
        <mxCell id="bUyvUs3Fg9rZF2IHYynH-96" value="" style="edgeStyle=orthogonalEdgeStyle;rounded=0;orthogonalLoop=1;jettySize=auto;html=1;" edge="1" parent="WIyWlLk6GJQsqaUBKTNV-1" source="bUyvUs3Fg9rZF2IHYynH-93" target="bUyvUs3Fg9rZF2IHYynH-95">
          <mxGeometry relative="1" as="geometry" />
        </mxCell>
        <mxCell id="bUyvUs3Fg9rZF2IHYynH-93" value="code &amp;lt;&amp;lt;= 6" style="whiteSpace=wrap;html=1;strokeWidth=2;" vertex="1" parent="WIyWlLk6GJQsqaUBKTNV-1">
          <mxGeometry x="880" y="1030" width="120" height="60" as="geometry" />
        </mxCell>
        <mxCell id="bUyvUs3Fg9rZF2IHYynH-99" value="" style="edgeStyle=orthogonalEdgeStyle;rounded=0;orthogonalLoop=1;jettySize=auto;html=1;" edge="1" parent="WIyWlLk6GJQsqaUBKTNV-1" source="bUyvUs3Fg9rZF2IHYynH-95" target="bUyvUs3Fg9rZF2IHYynH-98">
          <mxGeometry relative="1" as="geometry" />
        </mxCell>
        <mxCell id="bUyvUs3Fg9rZF2IHYynH-95" value="code |= chr[i+j] &amp;amp; 0x3F" style="whiteSpace=wrap;html=1;strokeWidth=2;" vertex="1" parent="WIyWlLk6GJQsqaUBKTNV-1">
          <mxGeometry x="880" y="1130" width="120" height="60" as="geometry" />
        </mxCell>
        <mxCell id="bUyvUs3Fg9rZF2IHYynH-101" value="" style="edgeStyle=orthogonalEdgeStyle;rounded=0;orthogonalLoop=1;jettySize=auto;html=1;" edge="1" parent="WIyWlLk6GJQsqaUBKTNV-1" source="bUyvUs3Fg9rZF2IHYynH-98" target="bUyvUs3Fg9rZF2IHYynH-100">
          <mxGeometry relative="1" as="geometry" />
        </mxCell>
        <mxCell id="bUyvUs3Fg9rZF2IHYynH-98" value="i += octets + 1" style="whiteSpace=wrap;html=1;strokeWidth=2;" vertex="1" parent="WIyWlLk6GJQsqaUBKTNV-1">
          <mxGeometry x="880" y="1330" width="120" height="60" as="geometry" />
        </mxCell>
        <mxCell id="bUyvUs3Fg9rZF2IHYynH-105" value="" style="edgeStyle=orthogonalEdgeStyle;rounded=0;orthogonalLoop=1;jettySize=auto;html=1;" edge="1" parent="WIyWlLk6GJQsqaUBKTNV-1" source="bUyvUs3Fg9rZF2IHYynH-100" target="bUyvUs3Fg9rZF2IHYynH-104">
          <mxGeometry relative="1" as="geometry" />
        </mxCell>
        <mxCell id="bUyvUs3Fg9rZF2IHYynH-100" value="cp" style="shape=parallelogram;perimeter=parallelogramPerimeter;whiteSpace=wrap;html=1;fixedSize=1;strokeWidth=2;" vertex="1" parent="WIyWlLk6GJQsqaUBKTNV-1">
          <mxGeometry x="880" y="1430" width="120" height="60" as="geometry" />
        </mxCell>
        <mxCell id="bUyvUs3Fg9rZF2IHYynH-103" value="" style="strokeWidth=2;html=1;shape=mxgraph.flowchart.loop_limit;whiteSpace=wrap;direction=west;" vertex="1" parent="WIyWlLk6GJQsqaUBKTNV-1">
          <mxGeometry x="880" y="1230" width="120" height="60" as="geometry" />
        </mxCell>
        <mxCell id="bUyvUs3Fg9rZF2IHYynH-104" value="Конец" style="rounded=1;whiteSpace=wrap;html=1;arcSize=50;" vertex="1" parent="WIyWlLk6GJQsqaUBKTNV-1">
          <mxGeometry x="880" y="1530" width="120" height="30" as="geometry" />
        </mxCell>
      </root>
    </mxGraphModel>
  </diagram>
</mxfile>
